<mxfile host="app.diagrams.net" modified="2021-03-25T14:05:50.671Z" agent="5.0 (Windows NT 10.0; Win64; x64) AppleWebKit/537.36 (KHTML, like Gecko) Chrome/89.0.4389.90 Safari/537.36" etag="Nseg3ljr0EBGkuOBuwHT" version="14.5.0" type="github">
  <diagram name="Page-1" id="03018318-947c-dd8e-b7a3-06fadd420f32">
    <mxGraphModel dx="1042" dy="547" grid="1" gridSize="10" guides="1" tooltips="1" connect="1" arrows="1" fold="1" page="1" pageScale="1" pageWidth="1100" pageHeight="850" background="#ffffff" math="0" shadow="0">
      <root>
        <mxCell id="0" />
        <mxCell id="1" parent="0" />
        <mxCell id="1RQq8dKr8lVt8F3AqnRl-3" style="edgeStyle=orthogonalEdgeStyle;rounded=0;orthogonalLoop=1;jettySize=auto;html=1;" edge="1" parent="1" source="677b7b8949515195-1">
          <mxGeometry relative="1" as="geometry">
            <mxPoint x="549.9999999999998" y="880" as="targetPoint" />
          </mxGeometry>
        </mxCell>
        <mxCell id="1RQq8dKr8lVt8F3AqnRl-10" style="edgeStyle=orthogonalEdgeStyle;rounded=0;orthogonalLoop=1;jettySize=auto;html=1;exitX=0.5;exitY=1;exitDx=0;exitDy=0;" edge="1" parent="1" source="677b7b8949515195-1" target="677b7b8949515195-1">
          <mxGeometry relative="1" as="geometry">
            <mxPoint x="560" y="880" as="targetPoint" />
          </mxGeometry>
        </mxCell>
        <mxCell id="677b7b8949515195-1" value="" style="whiteSpace=wrap;html=1;rounded=0;shadow=0;labelBackgroundColor=none;strokeColor=#000000;strokeWidth=1;fillColor=none;fontFamily=Verdana;fontSize=12;fontColor=#000000;align=center;comic=1;" parent="1" vertex="1">
          <mxGeometry x="20" y="120" width="1060" height="1360" as="geometry" />
        </mxCell>
        <mxCell id="677b7b8949515195-2" value="LOGO" style="whiteSpace=wrap;html=1;rounded=0;shadow=0;labelBackgroundColor=none;strokeWidth=1;fontFamily=Verdana;fontSize=28;align=center;comic=1;" parent="1" vertex="1">
          <mxGeometry x="40" y="30" width="240" height="80" as="geometry" />
        </mxCell>
        <mxCell id="677b7b8949515195-3" value="Search" style="strokeWidth=1;shadow=0;dashed=0;align=center;html=1;shape=mxgraph.mockup.forms.searchBox;strokeColor=#999999;mainText=;strokeColor2=#008cff;fontColor=#666666;fontSize=17;align=left;spacingLeft=3;rounded=0;labelBackgroundColor=none;comic=1;" parent="1" vertex="1">
          <mxGeometry x="850" y="70" width="220" height="30" as="geometry" />
        </mxCell>
        <mxCell id="677b7b8949515195-4" value="Сумки" style="text;html=1;points=[];align=left;verticalAlign=top;spacingTop=-4;fontSize=14;fontFamily=Verdana" parent="1" vertex="1">
          <mxGeometry x="350" y="40" width="60" height="20" as="geometry" />
        </mxCell>
        <mxCell id="677b7b8949515195-5" value="Аксессуары" style="text;html=1;points=[];align=left;verticalAlign=top;spacingTop=-4;fontSize=14;fontFamily=Verdana" parent="1" vertex="1">
          <mxGeometry x="417" y="40" width="60" height="20" as="geometry" />
        </mxCell>
        <mxCell id="677b7b8949515195-6" value="Коллекции" style="text;html=1;points=[];align=left;verticalAlign=top;spacingTop=-4;fontSize=14;fontFamily=Verdana" parent="1" vertex="1">
          <mxGeometry x="520" y="40" width="60" height="20" as="geometry" />
        </mxCell>
        <mxCell id="677b7b8949515195-7" value="special" style="text;html=1;points=[];align=left;verticalAlign=top;spacingTop=-4;fontSize=14;fontFamily=Verdana" parent="1" vertex="1">
          <mxGeometry x="623" y="40" width="60" height="20" as="geometry" />
        </mxCell>
        <mxCell id="677b7b8949515195-9" value="" style="line;strokeWidth=1;html=1;rounded=0;shadow=0;labelBackgroundColor=none;fillColor=none;fontFamily=Verdana;fontSize=14;fontColor=#000000;align=center;comic=1;" parent="1" vertex="1">
          <mxGeometry x="20" y="140" width="1060" height="10" as="geometry" />
        </mxCell>
        <mxCell id="677b7b8949515195-16" value="" style="verticalLabelPosition=bottom;shadow=0;dashed=0;align=center;html=1;verticalAlign=top;strokeWidth=1;shape=mxgraph.mockup.graphics.simpleIcon;strokeColor=#999999;rounded=0;labelBackgroundColor=none;fontFamily=Verdana;fontSize=14;fontColor=#000000;comic=1;" parent="1" vertex="1">
          <mxGeometry x="20" y="120" width="1060" height="450" as="geometry" />
        </mxCell>
        <mxCell id="677b7b8949515195-42" value="External Links" style="text;html=1;points=[];align=left;verticalAlign=top;spacingTop=-4;fontSize=14;fontFamily=Verdana" parent="1" vertex="1">
          <mxGeometry x="860" y="653" width="170" height="20" as="geometry" />
        </mxCell>
        <mxCell id="1RQq8dKr8lVt8F3AqnRl-1" value="" style="verticalLabelPosition=bottom;shadow=0;dashed=0;align=center;html=1;verticalAlign=top;strokeWidth=2;shape=mxgraph.mockup.misc.shoppingCart;strokeColor=#999999;perimeterSpacing=1;" vertex="1" parent="1">
          <mxGeometry x="990" y="28.75" width="30" height="27.5" as="geometry" />
        </mxCell>
        <mxCell id="1RQq8dKr8lVt8F3AqnRl-2" value="" style="shape=mxgraph.signs.people.man_1;html=1;pointerEvents=1;fillColor=#000000;strokeColor=none;verticalLabelPosition=bottom;verticalAlign=top;align=center;" vertex="1" parent="1">
          <mxGeometry x="940" y="17.5" width="20" height="50" as="geometry" />
        </mxCell>
        <mxCell id="1RQq8dKr8lVt8F3AqnRl-4" value="коллекуция 1" style="whiteSpace=wrap;html=1;aspect=fixed;strokeWidth=2;" vertex="1" parent="1">
          <mxGeometry x="50" y="640" width="250" height="250" as="geometry" />
        </mxCell>
        <mxCell id="1RQq8dKr8lVt8F3AqnRl-5" value="коллекция 2" style="whiteSpace=wrap;html=1;aspect=fixed;strokeWidth=2;" vertex="1" parent="1">
          <mxGeometry x="300" y="640" width="250" height="250" as="geometry" />
        </mxCell>
        <mxCell id="1RQq8dKr8lVt8F3AqnRl-6" value="&lt;span&gt;коллекция 3&lt;/span&gt;" style="whiteSpace=wrap;html=1;aspect=fixed;strokeWidth=2;" vertex="1" parent="1">
          <mxGeometry x="550" y="640" width="250" height="250" as="geometry" />
        </mxCell>
        <mxCell id="1RQq8dKr8lVt8F3AqnRl-9" value="&lt;span&gt;коллекция 4&lt;/span&gt;" style="whiteSpace=wrap;html=1;aspect=fixed;strokeWidth=2;" vertex="1" parent="1">
          <mxGeometry x="800" y="640" width="250" height="250" as="geometry" />
        </mxCell>
        <mxCell id="1RQq8dKr8lVt8F3AqnRl-11" value="&lt;h2&gt;&lt;font style=&quot;font-size: 65px&quot;&gt;Мы в Instagram&lt;/font&gt;&lt;/h2&gt;" style="strokeWidth=1;shadow=0;dashed=0;align=center;html=1;shape=mxgraph.mockup.text.textBox;fontColor=#666666;align=left;fontSize=17;spacingLeft=4;spacingTop=-3;strokeColor=#666666;mainText=" vertex="1" parent="1">
          <mxGeometry x="290" y="940" width="520" height="80" as="geometry" />
        </mxCell>
        <mxCell id="1RQq8dKr8lVt8F3AqnRl-12" value="" style="rounded=0;whiteSpace=wrap;html=1;strokeWidth=2;" vertex="1" parent="1">
          <mxGeometry x="20" y="1060" width="1060" height="420" as="geometry" />
        </mxCell>
        <mxCell id="1RQq8dKr8lVt8F3AqnRl-13" value="" style="line;strokeWidth=4;direction=south;html=1;perimeter=backbonePerimeter;points=[];outlineConnect=0;" vertex="1" parent="1">
          <mxGeometry x="370" y="1060" width="10" height="420" as="geometry" />
        </mxCell>
        <mxCell id="1RQq8dKr8lVt8F3AqnRl-14" value="" style="line;strokeWidth=4;direction=south;html=1;perimeter=backbonePerimeter;points=[];outlineConnect=0;" vertex="1" parent="1">
          <mxGeometry x="740" y="1060" width="10" height="420" as="geometry" />
        </mxCell>
        <mxCell id="1RQq8dKr8lVt8F3AqnRl-15" value="" style="line;strokeWidth=4;html=1;perimeter=backbonePerimeter;points=[];outlineConnect=0;" vertex="1" parent="1">
          <mxGeometry x="20" y="1270" width="1060" height="10" as="geometry" />
        </mxCell>
        <mxCell id="1RQq8dKr8lVt8F3AqnRl-16" value="&lt;font style=&quot;font-size: 36px&quot;&gt;О нас&lt;/font&gt;" style="strokeWidth=1;shadow=0;dashed=0;align=center;html=1;shape=mxgraph.mockup.text.textBox;fontColor=#666666;align=left;fontSize=17;spacingLeft=4;spacingTop=-3;strokeColor=#666666;mainText=" vertex="1" parent="1">
          <mxGeometry x="350" y="1520" width="112.5" height="50" as="geometry" />
        </mxCell>
        <mxCell id="1RQq8dKr8lVt8F3AqnRl-18" value="&lt;font style=&quot;font-size: 36px&quot;&gt;Покупателю&lt;/font&gt;" style="strokeWidth=1;shadow=0;dashed=0;align=center;html=1;shape=mxgraph.mockup.text.textBox;fontColor=#666666;align=left;fontSize=17;spacingLeft=4;spacingTop=-3;strokeColor=#666666;mainText=" vertex="1" parent="1">
          <mxGeometry x="650" y="1515" width="210" height="55" as="geometry" />
        </mxCell>
        <mxCell id="1RQq8dKr8lVt8F3AqnRl-19" value="- Оплата&lt;br style=&quot;font-size: 19px;&quot;&gt;- В рассрочку или кредит&lt;br style=&quot;font-size: 19px;&quot;&gt;- Доставка&lt;br style=&quot;font-size: 19px;&quot;&gt;- Обмен и возврат&lt;br style=&quot;font-size: 19px;&quot;&gt;- Гарантия и уход&lt;br style=&quot;font-size: 19px;&quot;&gt;- Оферта" style="strokeWidth=1;shadow=0;dashed=0;align=center;html=1;shape=mxgraph.mockup.text.bulletedList;textColor=#666666;mainText=,,,,;textSize=17;bulletStyle=none;strokeColor=none;fillColor=none;align=left;verticalAlign=top;fontSize=19;fontColor=#666666;" vertex="1" parent="1">
          <mxGeometry x="690" y="1620" width="150" height="135" as="geometry" />
        </mxCell>
        <mxCell id="1RQq8dKr8lVt8F3AqnRl-20" value="- Контакты&lt;br style=&quot;font-size: 19px;&quot;&gt;- Офис&lt;br style=&quot;font-size: 19px;&quot;&gt;- Оптовые продажи&lt;br style=&quot;font-size: 19px;&quot;&gt;- Предложение о сотрудничестве&lt;br style=&quot;font-size: 19px;&quot;&gt;" style="strokeWidth=1;shadow=0;dashed=0;align=center;html=1;shape=mxgraph.mockup.text.bulletedList;textColor=#666666;mainText=,,,,;textSize=17;bulletStyle=none;strokeColor=none;fillColor=none;align=left;verticalAlign=top;fontSize=19;fontColor=#666666;" vertex="1" parent="1">
          <mxGeometry x="340" y="1620" width="150" height="135" as="geometry" />
        </mxCell>
        <mxCell id="1RQq8dKr8lVt8F3AqnRl-21" style="edgeStyle=orthogonalEdgeStyle;rounded=0;orthogonalLoop=1;jettySize=auto;html=1;exitX=0;exitY=0.5;exitDx=0;exitDy=0;exitPerimeter=0;entryX=0.5;entryY=0;entryDx=0;entryDy=0;entryPerimeter=0;fontSize=19;" edge="1" parent="1" source="1RQq8dKr8lVt8F3AqnRl-2" target="1RQq8dKr8lVt8F3AqnRl-2">
          <mxGeometry relative="1" as="geometry">
            <Array as="points">
              <mxPoint x="960" y="40" />
              <mxPoint x="970" y="40" />
            </Array>
          </mxGeometry>
        </mxCell>
      </root>
    </mxGraphModel>
  </diagram>
</mxfile>
